<?xml version="1.0" encoding="UTF-8" standalone="no"?>
<!-- Created with Inkscape (http://www.inkscape.org/) -->

<svg
   xmlns:dc="http://purl.org/dc/elements/1.1/"
   xmlns:cc="http://creativecommons.org/ns#"
   xmlns:rdf="http://www.w3.org/1999/02/22-rdf-syntax-ns#"
   xmlns:svg="http://www.w3.org/2000/svg"
   xmlns="http://www.w3.org/2000/svg"
   xmlns:sodipodi="http://sodipodi.sourceforge.net/DTD/sodipodi-0.dtd"
   xmlns:inkscape="http://www.inkscape.org/namespaces/inkscape"
   width="16"
   height="16"
   viewBox="0 0 4.23328 4.23328"
   version="1.1"
   id="svg8"
   sodipodi:docname="gear.svg"
   inkscape:version="0.92.4 (5da689c313, 2019-01-14)">
  <defs
     id="defs2" />
  <sodipodi:namedview
     id="base"
     pagecolor="#ffffff"
     bordercolor="#666666"
     borderopacity="1.0"
     inkscape:pageopacity="0.0"
     inkscape:pageshadow="2"
     inkscape:zoom="45.254834"
     inkscape:cx="6.1834739"
     inkscape:cy="7.7658082"
     inkscape:document-units="px"
     inkscape:current-layer="layer1"
     showgrid="false"
     showguides="false"
     units="px"
     inkscape:window-width="1920"
     inkscape:window-height="1017"
     inkscape:window-x="1912"
     inkscape:window-y="0"
     inkscape:window-maximized="1" />
  <metadata
     id="metadata5">
    <rdf:RDF>
      <cc:Work
         rdf:about="">
        <dc:format>image/svg+xml</dc:format>
        <dc:type
           rdf:resource="http://purl.org/dc/dcmitype/StillImage" />
        <dc:title />
      </cc:Work>
    </rdf:RDF>
  </metadata>
  <g
     inkscape:label="Layer 1"
     inkscape:groupmode="layer"
     id="layer1"
     transform="translate(0,-292.76665)">
    <path
       style="fill:#000000;stroke-width:0.625"
       d="M 7 2 L 7 3.1015625 A 5.0000002 5.0000002 0 0 0 5.2460938 3.8320312 L 4.4648438 3.0507812 L 3.0507812 4.4648438 L 3.8320312 5.2460938 A 5.0000002 5.0000002 0 0 0 3.1054688 7 L 2 7 L 2 9 L 3.1015625 9 A 5.0000002 5.0000002 0 0 0 3.8320312 10.753906 L 3.0507812 11.535156 L 4.4648438 12.949219 L 5.2460938 12.167969 A 5.0000002 5.0000002 0 0 0 7 12.894531 L 7 14 L 9 14 L 9 12.898438 A 5.0000002 5.0000002 0 0 0 10.753906 12.167969 L 11.535156 12.949219 L 12.949219 11.535156 L 12.167969 10.753906 A 5.0000002 5.0000002 0 0 0 12.894531 9 L 14 9 L 14 7 L 12.898438 7 A 5.0000002 5.0000002 0 0 0 12.167969 5.2460938 L 12.949219 4.4648438 L 11.535156 3.0507812 L 10.753906 3.8320312 A 5.0000002 5.0000002 0 0 0 9 3.1054688 L 9 2 L 7 2 z M 8 4 A 4.0000002 4.0000002 0 0 1 10.869141 5.2128906 A 4.0000002 4.0000002 0 0 1 12 8 A 4.0000002 4.0000002 0 0 1 8 12 A 4.0000002 4.0000002 0 0 1 4 8 A 4.0000002 4.0000002 0 0 1 8 4 z "
       transform="matrix(0.26458,0,0,0.26458,0,292.76665)"
       id="path3729"
       inkscape:export-xdpi="96"
       inkscape:export-ydpi="96" />
  </g>
</svg>
